<?xml version="1.0" encoding="UTF-8"?>
<svg width="752pt" height="752pt" version="1.1" viewBox="0 0 752 752" xmlns="http://www.w3.org/2000/svg">
 <path d="m378.94 191.62h-5.875c-41.348 0-74.98 33.637-74.98 74.98v32.008c0 14.121 11.492 25.613 25.613 25.613h104.62c14.125 0 25.613-11.492 25.613-25.613v-32.008c-0.003906-41.344-33.641-74.98-74.988-74.98zm60.777 106.99c0 6.2891-5.1133 11.406-11.406 11.406l-104.61-0.003906c-6.2891 0-11.406-5.1133-11.406-11.406v-32.008c0-33.512 27.262-60.773 60.773-60.773h5.875c33.512 0 60.777 27.262 60.777 60.773zm49.641 40.637h-5.1016c3.5508-5.9805 5.6289-12.934 5.6289-20.383v-48.094c0-62.797-51.09-113.88-113.88-113.88s-113.88 51.09-113.88 113.88v48.094c0 7.4453 2.0781 14.402 5.6289 20.383h-5.1016c-9.1367 0-16.574 7.4375-16.574 16.574v17.207c0 8.2148 6.0273 15.008 13.883 16.305 8.2188 29.391 24.004 53.809 44.094 69.797l-12.754 118.79c-0.52344 4.875 0.9375 9.7578 3.9102 13.07 2.3906 2.6602 5.5508 4.1211 8.9062 4.1211h143.78c3.3594 0 6.5195-1.4609 8.9102-4.1211 2.9688-3.3125 4.4297-8.1953 3.9062-13.07l-12.758-118.79c20.094-15.988 35.883-40.41 44.102-69.801 7.8516-1.2969 13.879-8.0859 13.879-16.305v-17.207c0.003906-9.1367-7.4336-16.574-16.574-16.574zm-213.03-20.383v-48.094c0-54.961 44.715-99.676 99.676-99.676 54.961 0 99.676 44.715 99.676 99.676v48.094c0 8.2773-3.9219 15.641-9.9883 20.383h-179.38c-6.0664-4.7383-9.9883-12.102-9.9883-20.383zm-16.051 36.957c0-1.3047 1.0625-2.3672 2.3672-2.3672h226.71c1.3047 0 2.3672 1.0625 2.3672 2.3672v17.207c0 1.3047-1.0625 2.3672-2.3672 2.3672h-226.71c-1.3047 0-2.3672-1.0625-2.3672-2.3672zm186.31 223.61c0.058593 0.58594-0.003907 1.0977-0.10547 1.4648h-140.96c-0.10156-0.37109-0.16797-0.87891-0.10547-1.4648l11.953-111.32c13.074 7.3672 27.434 11.453 42.387 11.453h32.488c14.953 0 29.312-4.0859 42.387-11.449zm-54.34-114.08h-32.488c-37.539 0-70.941-30.805-84.906-75.75h202.3c-13.961 44.945-47.367 75.75-84.906 75.75z"/>
</svg>
